Coordinates
version=1
nRows=35
nColumns=18
inDegrees=yes

Units are S.I. units (second, meters, Newtons, ...)
If the header above contains a line with 'inDegrees', this indicates whether rotational values are in degrees (yes) or radians (no).

endheader
time	ground_thorax_rot_x	ground_thorax_rot_y	ground_thorax_rot_z	ground_thorax_tx	ground_thorax_ty	ground_thorax_tz	clav_prot	clav_elev	scapula_abduction	scapula_elevation	scapula_upward_rot	scapula_winging	plane_elv	shoulder_elv	axial_rot	elbow_flexion	pro_sup
      1.00000000	      0.51728761	     -7.61096052	     -9.64734862	     -0.03962072	      0.01704289	      0.00884844	    -22.14977236	     -9.43023656	    -17.54673622	     -9.94221896	     22.27155250	     15.35379610	    -26.00000000	     23.61505532	     39.94868772	     27.67419075	   -172.27236069
      1.02000000	      0.51728761	     -7.72051475	     -9.44887836	     -0.04064814	      0.01780833	      0.00843392	    -22.46539193	     -9.22304851	    -17.46129784	    -10.01856809	     23.19887715	     15.08112718	    -26.00000000	     24.39166006	     39.69089733	     27.91418984	   -172.17888960
      1.04000000	      0.51728761	     -7.88811165	     -9.25872178	     -0.04163093	      0.01858693	      0.00809034	    -22.76037250	     -9.00406561	    -17.28167497	    -10.09681948	     24.19268087	     14.78483124	    -26.00000000	     25.17881228	     39.12330843	     28.16458571	   -172.03958524
      1.06000000	      0.51728761	     -8.05378268	     -9.00653696	     -0.04274428	      0.01942395	      0.00759381	    -22.92392446	     -8.76472342	    -16.93734012	    -10.12997143	     25.09211083	     14.48991333	    -26.00000000	     26.12486600	     37.94305643	     28.30084506	   -171.58583423
      1.08000000	      0.51728761	     -8.19582103	     -8.75223913	     -0.04383658	      0.02029239	      0.00718971	    -23.21563693	     -8.53890539	    -16.69392407	    -10.20698923	     26.13858752	     14.17914037	    -26.00000000	     26.97335720	     37.02540009	     28.44884182	   -171.17612805
      1.10000000	      0.51728761	     -8.33973736	     -8.48342992	     -0.04489535	      0.02117159	      0.00680096	    -23.50155903	     -8.30080462	    -16.41447043	    -10.27554755	     27.20906192	     13.85807856	    -26.00000000	     27.82863375	     35.92031332	     28.58315477	   -170.27763777
      1.12000000	      0.51728761	     -8.49059270	     -8.21255645	     -0.04594352	      0.02208127	      0.00642683	    -23.83550106	     -8.05961536	    -16.09591820	    -10.36767922	     28.42029559	     13.50886982	    -26.00000000	     28.61055391	     34.79292360	     28.60754275	   -170.10081186
      1.14000000	      0.51728761	     -8.51412054	     -7.88478803	     -0.04706635	      0.02309935	      0.00589439	    -24.21247380	     -7.87044212	    -15.86102777	    -10.48391884	     29.58989039	     13.19517088	    -26.00000000	     29.51589328	     34.19069449	     28.62009484	   -169.97415341
      1.16000000	      0.51728761	     -8.81305098	     -7.54941358	     -0.04810564	      0.02393994	      0.00567748	    -24.37842965	     -7.49720401	    -15.25674816	    -10.46266874	     30.80038165	     12.78559415	    -26.00000000	     30.31351795	     31.95724259	     28.67773515	   -169.24496240
      1.18000000	      0.51728761	     -8.82795141	     -7.21024404	     -0.04919058	      0.02505730	      0.00517766	    -24.78539390	     -7.33400608	    -14.94304844	    -10.60721919	     32.08824080	     12.46441981	    -26.00000000	     31.17531635	     31.26005290	     28.53075600	   -169.06125458
      1.20000000	      0.51728761	     -9.07651126	     -6.92993636	     -0.05013437	      0.02603768	      0.00499586	    -25.13933507	     -7.04903688	    -14.34584080	    -10.69909091	     33.62060252	     12.04344376	    -26.00000000	     31.75062811	     29.69444624	     28.25404464	   -168.74904747
      1.22000000	      0.51728761	     -9.37255647	     -6.52545172	     -0.05116824	      0.02688675	      0.00486073	    -25.29585230	     -6.59051107	    -13.61748353	    -10.61489503	     34.93848114	     11.59301044	    -26.00000000	     32.49654530	     27.54221939	     28.26358191	   -167.91785658
      1.24000000	      0.51728761	     -9.47762762	     -6.13469072	     -0.05224600	      0.02802728	      0.00451056	    -25.62953838	     -6.36290744	    -13.04892414	    -10.70339551	     36.34040144	     11.23609772	    -26.00000000	     33.27656670	     26.35797437	     27.93596487	   -167.49027067
      1.26000000	      0.51728761	     -9.76647689	     -5.69229020	     -0.05328357	      0.02888208	      0.00443114	    -25.74766594	     -5.87911176	    -12.25005372	    -10.58041036	     37.63787238	     10.79489516	    -26.00000000	     34.04722395	     24.30001051	     27.96072822	   -166.30597266
      1.28000000	      0.51728761	    -10.00283540	     -5.30600908	     -0.05427776	      0.02992080	      0.00433118	    -26.02195946	     -5.55244035	    -11.48548084	    -10.59391134	     39.14089496	     10.39468589	    -26.00000000	     34.69315464	     22.98375976	     27.64513448	   -165.61735812
      1.30000000	      0.51728761	    -10.08721177	     -4.86211684	     -0.05536217	      0.03114032	      0.00409076	    -26.35179331	     -5.32611699	    -10.83439143	    -10.65779703	     40.58041614	     10.05802446	    -26.00000000	     35.45355840	     22.15086801	     27.23371976	   -165.41111370
      1.32000000	      0.51728761	    -10.48281704	     -4.43198754	     -0.05638428	      0.03199977	      0.00414009	    -26.38033820	     -4.85369544	     -9.76954485	    -10.51851426	     41.94232747	      9.64312142	    -26.00000000	     36.19408909	     20.30823577	     27.07802857	   -164.51682131
      1.34000000	      0.51728761	    -10.76667664	     -4.01672338	     -0.05735397	      0.03305658	      0.00419768	    -26.57459320	     -4.52175656	     -8.86949358	    -10.48325949	     43.39094353	      9.28522867	    -26.00000000	     36.84596718	     19.19062326	     26.75116860	   -163.64979928
      1.36000000	      0.51728761	    -11.08205778	     -3.61591895	     -0.05828387	      0.03404761	      0.00428269	    -26.74178511	     -4.18696327	     -7.89580445	    -10.43433551	     44.85247434	      8.93825400	    -26.00000000	     37.51866489	     18.37701419	     26.40974609	   -163.57436474
      1.38000000	      0.51728761	    -11.40565547	     -3.16435666	     -0.05929079	      0.03511095	      0.00430534	    -26.78351211	     -3.88424982	     -6.85227685	    -10.36830254	     46.12354545	      8.64565699	    -26.00000000	     38.34256310	     17.36568023	     26.08819091	   -163.29490246
      1.40000000	      0.51728761	    -11.72070027	     -2.76922604	     -0.06019645	      0.03609372	      0.00443338	    -26.91565680	     -3.57995260	     -5.85458914	    -10.30778509	     47.50953626	      8.34922151	    -26.00000000	     39.01741006	     16.75770211	     25.72149978	   -163.24527382
      1.42000000	      0.51728761	    -12.09690593	     -2.31516618	     -0.06115942	      0.03713083	      0.00452526	    -26.89302752	     -3.30321363	     -4.74348406	    -10.22872442	     48.70018673	      8.10318518	    -26.00000000	     39.83573606	     16.05727515	     25.38806114	   -163.16350875
      1.44000000	      0.51728761	    -12.45378001	     -1.88898646	     -0.06205975	      0.03816929	      0.00465838	    -26.90103896	     -3.04179257	     -3.69038562	    -10.15194121	     49.87606408	      7.87564011	    -26.00000000	     40.59746191	     15.51960407	     25.09449468	   -163.10148928
      1.46000000	      0.51728761	    -12.78688703	     -1.48002577	     -0.06289682	      0.03914727	      0.00481261	    -26.95256950	     -2.77944966	     -2.70305421	    -10.06919229	     51.05902622	      7.65762140	    -26.00000000	     41.26912574	     15.11021881	     24.78981911	   -163.07392034
      1.48000000	      0.51728761	    -13.15818132	     -1.05376447	     -0.06372108	      0.04013017	      0.00492349	    -26.89333800	     -2.53292997	     -1.64654437	     -9.97246117	     52.09297181	      7.47276561	    -26.00000000	     42.02644791	     14.72557196	     24.50307080	   -163.04777723
      1.50000000	      0.51728761	    -13.45850711	     -0.63345133	     -0.06454249	      0.04110275	      0.00503206	    -26.92025261	     -2.28175333	     -0.72960848	     -9.87192388	     53.14171097	      7.29245167	    -26.00000000	     42.64899273	     14.43691680	     24.19925331	   -163.03917587
      1.52000000	      0.51728761	    -13.85208469	     -0.20357264	     -0.06530129	      0.04205599	      0.00509191	    -26.79227982	     -2.05259596	      0.31696879	     -9.76143588	     54.02092390	      7.14571470	    -26.00000000	     43.38065255	     14.19077693	     23.92799928	   -163.03524327
      1.54000000	      0.51728761	    -14.02849069	      0.18234067	     -0.06599145	      0.04295075	      0.00510760	    -26.87267227	     -1.80285307	      1.02356153	     -9.64687166	     54.94672712	      6.99063791	    -26.00000000	     43.93410066	     14.03887811	     23.70694738	   -163.03527432
      1.56000000	      0.51728761	    -14.34996911	      0.60643015	     -0.06667574	      0.04383443	      0.00517302	    -26.85680405	     -1.53615571	      1.87130426	     -9.50882226	     55.83532616	      6.84195294	    -26.00000000	     44.39880260	     13.90227510	     23.38786008	   -163.05051736
      1.58000000	      0.51728761	    -14.78496697	      1.06273551	     -0.06734879	      0.04472113	      0.00508799	    -26.57446427	     -1.34212011	      2.95342319	     -9.38815075	     56.44158859	      6.74730141	    -26.00000000	     45.14030213	     13.96994102	     23.05118435	   -163.17804739
      1.60000000	      0.51728761	    -14.92157118	      1.44630915	     -0.06795642	      0.04552661	      0.00504654	    -26.68020618	     -1.07494030	      3.50411554	     -9.24609692	     57.25152338	      6.61282503	    -26.00000000	     45.47102902	     13.91263187	     22.78152740	   -163.22099419
      1.62000000	      0.51728761	    -15.16661065	      1.85940327	     -0.06852893	      0.04628345	      0.00505659	    -26.69923148	     -0.78678370	      4.16285250	     -9.08001998	     58.01046619	      6.48155373	    -26.00000000	     45.73477814	     13.94805944	     22.42376424	   -163.30254549
      1.64000000	      0.51728761	    -15.34707800	      2.24632163	     -0.06906552	      0.04699294	      0.00498209	    -26.72126335	     -0.52516310	      4.73979015	     -8.92601906	     58.68436691	      6.36857786	    -26.00000000	     46.01511080	     14.04642278	     22.08164170	   -163.40310259
      1.66000000	      0.51728761	    -15.67980103	      2.66065429	     -0.06958722	      0.04771052	      0.00483209	    -26.51676036	     -0.36026039	      5.59896424	     -8.81607391	     59.19398318	      6.30411626	    -26.00000000	     46.48108180	     14.87365592	     21.59547276	   -164.25275204
      1.68000000	      0.51728761	    -15.78356637	      3.01390378	     -0.07003723	      0.04832467	      0.00480338	    -26.61124133	     -0.08784393	      5.99533490	     -8.65351598	     59.82079338	      6.19629775	    -26.00000000	     46.58721709	     14.90746825	     21.26029571	   -164.38354801
